<?xml version="1.0" encoding="UTF-8"?>
<svg xmlns="http://www.w3.org/2000/svg" xmlns:xlink="http://www.w3.org/1999/xlink" width="160px" height="55px" viewBox="0 0 160 55" version="1.1">
<g id="surface1">
<path style=" stroke:none;fill-rule:nonzero;fill:rgb(0%,0%,0%);fill-opacity:1;" d="M 145.675781 47 L 144.386719 47 L 144.386719 40.855469 L 145.675781 40.855469 L 145.675781 41.503906 L 145.699219 41.503906 C 146.121094 41.019531 146.675781 40.777344 147.363281 40.777344 C 147.773438 40.78125 148.144531 40.886719 148.46875 41.082031 L 148.378906 40.855469 L 149.742188 40.855469 L 151.257812 45.160156 L 151.285156 45.160156 L 152.792969 40.855469 L 154.164062 40.855469 L 151.40625 48.273438 C 151.230469 48.738281 150.984375 49.058594 150.671875 49.234375 C 150.355469 49.402344 150 49.488281 149.601562 49.488281 L 149.175781 49.488281 L 149.175781 48.320312 L 149.550781 48.320312 C 149.71875 48.320312 149.875 48.277344 150.019531 48.191406 C 150.164062 48.101562 150.265625 47.964844 150.320312 47.789062 L 150.671875 46.757812 L 148.585938 41.386719 L 147.769531 42.324219 C 147.5 42.117188 147.21875 42.015625 146.925781 42.015625 C 146.597656 42.015625 146.316406 42.117188 146.082031 42.324219 C 145.816406 42.523438 145.683594 42.851562 145.675781 43.300781 Z M 39.957031 49.488281 L 38.667969 49.488281 L 38.667969 40.855469 L 39.957031 40.855469 L 39.957031 41.492188 C 40.382812 41.035156 40.933594 40.796875 41.609375 40.777344 C 42.390625 40.796875 42.964844 41.066406 43.328125 41.582031 C 43.503906 41.777344 43.625 42.03125 43.691406 42.347656 C 43.753906 42.660156 43.785156 43.1875 43.785156 43.933594 C 43.785156 44.660156 43.753906 45.179688 43.691406 45.496094 C 43.625 45.8125 43.503906 46.070312 43.328125 46.273438 C 43.148438 46.507812 42.917969 46.699219 42.628906 46.839844 C 42.347656 46.988281 42.007812 47.066406 41.609375 47.070312 C 41.277344 47.070312 40.984375 47.003906 40.726562 46.863281 C 40.445312 46.738281 40.191406 46.566406 39.957031 46.34375 Z M 93.339844 44.394531 C 93.339844 44.886719 93.488281 45.265625 93.785156 45.519531 C 94.0625 45.78125 94.421875 45.910156 94.871094 45.910156 C 95.390625 45.910156 95.859375 45.710938 96.269531 45.3125 L 97.199219 46.078125 C 96.546875 46.75 95.777344 47.082031 94.894531 47.070312 C 94.558594 47.070312 94.230469 47.023438 93.910156 46.929688 C 93.75 46.878906 93.59375 46.808594 93.441406 46.722656 C 93.28125 46.648438 93.128906 46.554688 92.992188 46.445312 C 92.71875 46.214844 92.5 45.894531 92.332031 45.484375 C 92.144531 45.089844 92.054688 44.578125 92.054688 43.945312 C 92.054688 43.335938 92.132812 42.832031 92.292969 42.429688 C 92.453125 42.019531 92.660156 41.695312 92.910156 41.457031 C 93.164062 41.21875 93.449219 41.042969 93.765625 40.9375 C 94.078125 40.828125 94.386719 40.777344 94.691406 40.777344 C 95.421875 40.785156 96.042969 41.015625 96.546875 41.46875 C 97.0625 41.933594 97.320312 42.566406 97.328125 43.375 L 97.328125 44.394531 Z M 115.292969 44.394531 C 115.292969 44.886719 115.441406 45.265625 115.734375 45.519531 C 116.011719 45.78125 116.371094 45.910156 116.820312 45.910156 C 117.34375 45.910156 117.808594 45.710938 118.21875 45.3125 L 119.152344 46.078125 C 118.496094 46.75 117.730469 47.082031 116.84375 47.070312 C 116.507812 47.070312 116.179688 47.023438 115.859375 46.929688 C 115.699219 46.878906 115.542969 46.808594 115.390625 46.722656 C 115.230469 46.648438 115.082031 46.554688 114.941406 46.445312 C 114.667969 46.214844 114.449219 45.894531 114.28125 45.484375 C 114.097656 45.089844 114.003906 44.578125 114.003906 43.945312 C 114.003906 43.335938 114.082031 42.832031 114.246094 42.429688 C 114.402344 42.019531 114.609375 41.695312 114.859375 41.457031 C 115.113281 41.21875 115.402344 41.042969 115.714844 40.9375 C 116.03125 40.828125 116.335938 40.777344 116.640625 40.777344 C 117.371094 40.785156 117.992188 41.015625 118.496094 41.46875 C 119.011719 41.933594 119.269531 42.566406 119.28125 43.375 L 119.28125 44.394531 Z M 139.046875 44.394531 C 139.046875 44.886719 139.195312 45.265625 139.492188 45.519531 C 139.765625 45.78125 140.128906 45.910156 140.578125 45.910156 C 141.097656 45.910156 141.566406 45.710938 141.976562 45.3125 L 142.90625 46.078125 C 142.253906 46.75 141.484375 47.082031 140.601562 47.070312 C 140.265625 47.070312 139.933594 47.023438 139.613281 46.929688 C 139.453125 46.878906 139.296875 46.808594 139.144531 46.722656 C 138.984375 46.648438 138.835938 46.554688 138.695312 46.445312 C 138.425781 46.214844 138.207031 45.894531 138.039062 45.484375 C 137.851562 45.089844 137.757812 44.578125 137.757812 43.945312 C 137.757812 43.335938 137.839844 42.832031 138 42.429688 C 138.160156 42.019531 138.367188 41.695312 138.617188 41.457031 C 138.871094 41.21875 139.15625 41.042969 139.472656 40.9375 C 139.785156 40.828125 140.09375 40.777344 140.398438 40.777344 C 141.128906 40.785156 141.746094 41.015625 142.253906 41.46875 C 142.765625 41.933594 143.027344 42.566406 143.035156 43.375 L 143.035156 44.394531 Z M 125.339844 46.007812 C 125.058594 46.3125 124.730469 46.566406 124.351562 46.757812 C 123.976562 46.960938 123.535156 47.066406 123.039062 47.070312 C 122.285156 47.070312 121.621094 46.824219 121.050781 46.332031 C 120.457031 45.839844 120.152344 45.039062 120.136719 43.933594 C 120.152344 42.816406 120.457031 42.007812 121.050781 41.503906 C 121.621094 41.011719 122.285156 40.769531 123.039062 40.777344 C 123.535156 40.785156 123.976562 40.882812 124.351562 41.074219 C 124.730469 41.265625 125.058594 41.523438 125.339844 41.847656 L 124.390625 42.660156 C 124.066406 42.246094 123.632812 42.03125 123.089844 42.015625 C 121.996094 42 121.441406 42.636719 121.425781 43.933594 C 121.441406 45.21875 121.996094 45.855469 123.089844 45.835938 C 123.632812 45.828125 124.066406 45.613281 124.390625 45.195312 Z M 125.917969 43.921875 C 125.917969 43.273438 125.972656 42.777344 126.085938 42.429688 C 126.199219 42.089844 126.375 41.804688 126.613281 41.570312 C 126.792969 41.363281 127.039062 41.183594 127.355469 41.019531 C 127.667969 40.867188 128.066406 40.785156 128.558594 40.777344 C 129.0625 40.785156 129.472656 40.867188 129.785156 41.019531 C 130.09375 41.183594 130.328125 41.363281 130.5 41.570312 C 130.753906 41.804688 130.933594 42.089844 131.039062 42.429688 C 131.144531 42.777344 131.195312 43.273438 131.195312 43.921875 C 131.195312 44.570312 131.144531 45.0625 131.039062 45.402344 C 130.933594 45.742188 130.753906 46.035156 130.5 46.285156 C 130.417969 46.375 130.316406 46.464844 130.195312 46.550781 C 130.089844 46.648438 129.953125 46.734375 129.785156 46.804688 C 129.472656 46.976562 129.0625 47.066406 128.558594 47.070312 C 128.066406 47.066406 127.667969 46.976562 127.355469 46.804688 C 127.039062 46.652344 126.792969 46.476562 126.613281 46.285156 C 126.375 46.035156 126.199219 45.742188 126.085938 45.402344 C 125.972656 45.0625 125.917969 44.570312 125.917969 43.921875 Z M 24.441406 46.007812 C 24.160156 46.3125 23.832031 46.566406 23.453125 46.757812 C 23.078125 46.960938 22.640625 47.066406 22.140625 47.070312 C 21.386719 47.070312 20.722656 46.824219 20.152344 46.332031 C 19.558594 45.839844 19.253906 45.039062 19.238281 43.933594 C 19.253906 42.816406 19.558594 42.007812 20.152344 41.503906 C 20.722656 41.011719 21.386719 40.769531 22.140625 40.777344 C 22.640625 40.785156 23.078125 40.882812 23.453125 41.074219 C 23.832031 41.265625 24.160156 41.523438 24.441406 41.847656 L 23.492188 42.660156 C 23.167969 42.246094 22.734375 42.03125 22.191406 42.015625 C 21.097656 42 20.542969 42.636719 20.527344 43.933594 C 20.542969 45.21875 21.097656 45.855469 22.191406 45.835938 C 22.734375 45.828125 23.167969 45.613281 23.492188 45.195312 Z M 81.136719 47 L 79.847656 47 L 79.847656 46.457031 L 79.824219 46.457031 C 79.707031 46.664062 79.519531 46.820312 79.269531 46.917969 C 79.023438 47.019531 78.679688 47.070312 78.246094 47.070312 C 77.53125 47.066406 76.980469 46.882812 76.59375 46.527344 C 76.1875 46.179688 75.984375 45.734375 75.984375 45.195312 C 75.984375 44.679688 76.160156 44.25 76.515625 43.910156 C 76.867188 43.5625 77.386719 43.382812 78.066406 43.375 L 79.847656 43.375 L 79.847656 42.730469 C 79.855469 42.191406 79.417969 41.925781 78.535156 41.941406 C 78.214844 41.941406 77.960938 41.976562 77.777344 42.039062 C 77.585938 42.113281 77.433594 42.238281 77.320312 42.417969 L 76.308594 41.675781 C 76.800781 41.0625 77.519531 40.761719 78.476562 40.777344 C 79.28125 40.769531 79.921875 40.914062 80.402344 41.214844 C 80.882812 41.523438 81.128906 42.050781 81.136719 42.800781 Z M 70.621094 45.125 C 71.144531 45.648438 71.816406 45.910156 72.644531 45.910156 C 73.011719 45.910156 73.316406 45.84375 73.550781 45.703125 C 73.785156 45.566406 73.898438 45.371094 73.898438 45.125 C 73.898438 44.902344 73.832031 44.75 73.691406 44.660156 C 73.546875 44.570312 73.355469 44.523438 73.117188 44.511719 L 71.984375 44.417969 C 71.445312 44.371094 71.007812 44.199219 70.671875 43.898438 C 70.324219 43.605469 70.148438 43.195312 70.140625 42.671875 C 70.148438 42.039062 70.382812 41.566406 70.835938 41.25 C 71.28125 40.933594 71.84375 40.777344 72.527344 40.777344 C 72.820312 40.777344 73.085938 40.796875 73.320312 40.828125 C 73.554688 40.871094 73.773438 40.925781 73.980469 40.996094 C 74.375 41.148438 74.730469 41.359375 75.039062 41.617188 L 74.246094 42.511719 C 74 42.34375 73.738281 42.203125 73.464844 42.089844 C 73.191406 41.992188 72.878906 41.941406 72.527344 41.941406 C 72.125 41.941406 71.84375 42.011719 71.679688 42.152344 C 71.511719 42.289062 71.429688 42.464844 71.429688 42.683594 C 71.421875 42.820312 71.484375 42.941406 71.621094 43.046875 C 71.742188 43.160156 71.960938 43.234375 72.273438 43.265625 L 73.332031 43.339844 C 74 43.386719 74.480469 43.582031 74.777344 43.921875 C 75.050781 44.253906 75.1875 44.671875 75.1875 45.183594 C 75.179688 45.78125 74.929688 46.238281 74.429688 46.5625 C 73.9375 46.894531 73.308594 47.066406 72.539062 47.070312 C 71.496094 47.070312 70.554688 46.707031 69.722656 45.96875 Z M 55.605469 47 L 54.089844 47 L 53.257812 46.128906 C 52.894531 46.394531 52.503906 46.617188 52.085938 46.792969 C 51.671875 46.972656 51.226562 47.066406 50.75 47.070312 C 49.890625 47.054688 49.207031 46.789062 48.703125 46.273438 C 48.179688 45.765625 47.914062 45.144531 47.90625 44.417969 C 47.914062 43.339844 48.488281 42.5 49.621094 41.894531 C 49.402344 41.652344 49.230469 41.390625 49.101562 41.109375 C 48.957031 40.832031 48.878906 40.546875 48.878906 40.253906 C 48.878906 39.714844 49.066406 39.253906 49.4375 38.875 C 49.796875 38.496094 50.285156 38.304688 50.898438 38.296875 C 51.511719 38.304688 52 38.496094 52.363281 38.875 C 52.726562 39.253906 52.910156 39.714844 52.917969 40.253906 C 52.933594 41.058594 52.433594 41.699219 51.414062 42.1875 L 53.332031 44.40625 C 53.683594 43.960938 53.945312 43.480469 54.113281 42.960938 L 55.265625 43.398438 C 55.140625 43.722656 54.976562 44.046875 54.773438 44.371094 C 54.574219 44.703125 54.34375 45 54.089844 45.265625 Z M 82.992188 45.125 C 83.515625 45.648438 84.1875 45.910156 85.015625 45.910156 C 85.382812 45.910156 85.6875 45.84375 85.921875 45.703125 C 86.15625 45.566406 86.273438 45.371094 86.273438 45.125 C 86.273438 44.902344 86.203125 44.75 86.0625 44.660156 C 85.917969 44.570312 85.726562 44.523438 85.488281 44.511719 L 84.355469 44.417969 C 83.816406 44.371094 83.378906 44.199219 83.042969 43.898438 C 82.695312 43.605469 82.519531 43.195312 82.511719 42.671875 C 82.519531 42.039062 82.75 41.566406 83.207031 41.25 C 83.652344 40.933594 84.214844 40.777344 84.898438 40.777344 C 85.195312 40.777344 85.457031 40.796875 85.691406 40.828125 C 85.925781 40.871094 86.144531 40.925781 86.351562 40.996094 C 86.746094 41.148438 87.097656 41.359375 87.414062 41.617188 L 86.617188 42.511719 C 86.371094 42.34375 86.109375 42.203125 85.835938 42.089844 C 85.5625 41.992188 85.25 41.941406 84.898438 41.941406 C 84.492188 41.941406 84.210938 42.011719 84.054688 42.152344 C 83.882812 42.289062 83.800781 42.464844 83.800781 42.683594 C 83.792969 42.820312 83.855469 42.941406 83.992188 43.046875 C 84.113281 43.160156 84.332031 43.234375 84.644531 43.265625 L 85.703125 43.339844 C 86.371094 43.386719 86.851562 43.582031 87.148438 43.921875 C 87.421875 44.253906 87.558594 44.671875 87.558594 45.183594 C 87.550781 45.78125 87.300781 46.238281 86.800781 46.5625 C 86.308594 46.894531 85.675781 47.066406 84.910156 47.070312 C 83.867188 47.070312 82.925781 46.707031 82.09375 45.96875 Z M 18.066406 47 L 16.777344 47 L 16.777344 46.457031 L 16.753906 46.457031 C 16.636719 46.664062 16.449219 46.820312 16.199219 46.917969 C 15.953125 47.019531 15.613281 47.070312 15.175781 47.070312 C 14.460938 47.066406 13.910156 46.882812 13.523438 46.527344 C 13.117188 46.179688 12.914062 45.734375 12.914062 45.195312 C 12.914062 44.679688 13.089844 44.25 13.445312 43.910156 C 13.796875 43.5625 14.316406 43.382812 14.996094 43.375 L 16.777344 43.375 L 16.777344 42.730469 C 16.789062 42.191406 16.351562 41.925781 15.464844 41.941406 C 15.144531 41.941406 14.894531 41.976562 14.707031 42.039062 C 14.515625 42.113281 14.363281 42.238281 14.25 42.417969 L 13.242188 41.675781 C 13.730469 41.0625 14.449219 40.761719 15.40625 40.777344 C 16.210938 40.769531 16.851562 40.914062 17.332031 41.214844 C 17.816406 41.523438 18.058594 42.050781 18.066406 42.800781 Z M 37.003906 47 L 35.714844 47 L 35.714844 46.34375 L 35.691406 46.34375 C 35.265625 46.828125 34.714844 47.070312 34.03125 47.070312 C 33.5 47.066406 33.023438 46.878906 32.59375 46.515625 C 32.132812 46.160156 31.894531 45.636719 31.886719 44.941406 L 31.886719 40.855469 L 33.175781 40.855469 L 33.175781 44.511719 C 33.175781 44.929688 33.296875 45.25 33.539062 45.484375 C 33.777344 45.71875 34.082031 45.835938 34.449219 45.835938 C 34.820312 45.835938 35.121094 45.71875 35.355469 45.484375 C 35.59375 45.25 35.714844 44.929688 35.714844 44.511719 L 35.714844 40.855469 L 37.003906 40.855469 Z M 108.097656 47 L 106.734375 47 L 106.734375 38.367188 L 110.242188 38.367188 C 110.992188 38.367188 111.601562 38.554688 112.074219 38.933594 C 112.644531 39.367188 112.941406 39.980469 112.96875 40.777344 C 112.953125 41.949219 112.371094 42.746094 111.230469 43.167969 L 113.3125 47 L 111.691406 47 L 109.835938 43.3125 L 108.097656 43.3125 Z M 135.046875 47 L 133.988281 47 L 131.640625 40.855469 L 133 40.855469 L 134.503906 45.160156 L 134.53125 45.160156 L 136.027344 40.855469 L 137.394531 40.855469 Z M 99.96875 47 L 98.679688 47 L 98.679688 40.855469 L 99.96875 40.855469 L 99.96875 41.503906 L 99.992188 41.503906 C 100.417969 41.019531 100.972656 40.777344 101.65625 40.777344 C 102.171875 40.785156 102.617188 40.941406 103 41.25 L 102.0625 42.324219 C 101.792969 42.117188 101.511719 42.015625 101.21875 42.015625 C 100.890625 42.015625 100.609375 42.117188 100.375 42.324219 C 100.113281 42.523438 99.976562 42.851562 99.96875 43.300781 Z M 26.625 47 L 25.335938 47 L 25.335938 38.367188 L 26.625 38.367188 L 26.625 43.738281 L 26.648438 43.738281 L 29.105469 40.855469 L 30.648438 40.855469 L 28.441406 43.253906 L 30.949219 47 L 29.335938 47 L 27.632812 44.128906 L 26.625 45.230469 Z M 62.621094 47 L 59.570312 47 L 59.570312 38.367188 L 62.714844 38.367188 C 63.929688 38.375 64.84375 38.859375 65.449219 39.824219 C 65.667969 40.148438 65.804688 40.488281 65.863281 40.84375 C 65.90625 41.199219 65.929688 41.8125 65.929688 42.683594 C 65.929688 43.613281 65.894531 44.257812 65.824219 44.625 C 65.792969 44.8125 65.742188 44.976562 65.679688 45.125 C 65.609375 45.265625 65.523438 45.414062 65.425781 45.566406 C 65.164062 45.972656 64.796875 46.308594 64.328125 46.574219 C 63.863281 46.859375 63.296875 47 62.621094 47 Z M 91.160156 47 L 90.488281 47 C 90.035156 47 89.664062 46.867188 89.378906 46.597656 C 89.082031 46.34375 88.933594 45.96875 88.933594 45.484375 L 88.933594 41.796875 L 88.292969 41.796875 L 88.292969 40.855469 L 88.933594 40.855469 L 88.933594 38.980469 L 90.222656 38.980469 L 90.222656 40.855469 L 91.160156 40.855469 L 91.160156 41.796875 L 90.222656 41.796875 L 90.222656 45.378906 C 90.214844 45.691406 90.367188 45.84375 90.679688 45.835938 L 91.160156 45.835938 Z M 68.730469 47 L 67.441406 47 L 67.441406 40.855469 L 68.730469 40.855469 Z M 9.621094 47 L 5.835938 47 L 5.835938 38.367188 L 9.320312 38.367188 C 10.203125 38.375 10.867188 38.585938 11.3125 39.007812 C 11.757812 39.429688 11.984375 39.988281 11.984375 40.683594 C 11.992188 41.039062 11.902344 41.375 11.71875 41.699219 C 11.625 41.855469 11.488281 42 11.3125 42.140625 C 11.132812 42.285156 10.917969 42.417969 10.65625 42.535156 L 10.65625 42.558594 C 11.148438 42.683594 11.515625 42.929688 11.769531 43.300781 C 12.003906 43.683594 12.117188 44.097656 12.117188 44.550781 C 12.109375 45.296875 11.867188 45.886719 11.390625 46.320312 C 10.917969 46.773438 10.328125 47 9.621094 47 Z M 50.339844 42.71875 C 49.464844 43.210938 49.03125 43.773438 49.042969 44.40625 C 49.050781 44.855469 49.21875 45.230469 49.546875 45.519531 C 49.867188 45.828125 50.253906 45.984375 50.707031 45.984375 C 51.289062 45.992188 51.890625 45.734375 52.511719 45.21875 Z M 16.777344 44.394531 L 15.238281 44.394531 C 14.488281 44.410156 14.121094 44.65625 14.128906 45.136719 C 14.128906 45.34375 14.226562 45.523438 14.417969 45.667969 C 14.601562 45.832031 14.910156 45.910156 15.335938 45.910156 C 15.875 45.917969 16.253906 45.859375 16.476562 45.726562 C 16.679688 45.597656 16.777344 45.300781 16.777344 44.839844 Z M 79.847656 44.394531 L 78.308594 44.394531 C 77.558594 44.410156 77.191406 44.65625 77.199219 45.136719 C 77.199219 45.34375 77.296875 45.523438 77.488281 45.667969 C 77.671875 45.832031 77.980469 45.910156 78.40625 45.910156 C 78.945312 45.917969 79.324219 45.859375 79.546875 45.726562 C 79.75 45.597656 79.847656 45.300781 79.847656 44.839844 Z M 41.21875 45.835938 C 41.523438 45.835938 41.765625 45.78125 41.941406 45.667969 C 42.117188 45.554688 42.242188 45.40625 42.316406 45.230469 C 42.398438 45.042969 42.453125 44.839844 42.480469 44.613281 C 42.492188 44.394531 42.496094 44.167969 42.496094 43.933594 C 42.496094 43.6875 42.492188 43.449219 42.480469 43.214844 C 42.453125 42.984375 42.398438 42.777344 42.316406 42.601562 C 42.242188 42.414062 42.117188 42.269531 41.941406 42.164062 C 41.765625 42.0625 41.523438 42.015625 41.21875 42.015625 C 40.929688 42.015625 40.703125 42.070312 40.535156 42.1875 C 40.359375 42.300781 40.230469 42.449219 40.148438 42.636719 C 40.070312 42.820312 40.019531 43.023438 39.992188 43.242188 C 39.96875 43.46875 39.957031 43.699219 39.957031 43.933594 C 39.957031 44.152344 39.96875 44.367188 39.992188 44.585938 C 40.019531 44.8125 40.070312 45.019531 40.148438 45.207031 C 40.230469 45.390625 40.359375 45.542969 40.535156 45.65625 C 40.703125 45.777344 40.929688 45.835938 41.21875 45.835938 Z M 129.90625 43.933594 C 129.90625 43.496094 129.886719 43.175781 129.84375 42.972656 C 129.804688 42.78125 129.71875 42.609375 129.59375 42.464844 C 129.496094 42.328125 129.359375 42.21875 129.171875 42.140625 C 128.996094 42.054688 128.789062 42.015625 128.558594 42.015625 C 128.339844 42.015625 128.136719 42.054688 127.953125 42.140625 C 127.777344 42.21875 127.632812 42.328125 127.519531 42.464844 C 127.410156 42.609375 127.332031 42.78125 127.28125 42.972656 C 127.230469 43.175781 127.207031 43.492188 127.207031 43.921875 C 127.207031 44.347656 127.230469 44.660156 127.28125 44.855469 C 127.332031 45.058594 127.410156 45.234375 127.519531 45.390625 C 127.632812 45.507812 127.777344 45.613281 127.953125 45.703125 C 128.136719 45.792969 128.339844 45.835938 128.558594 45.835938 C 128.789062 45.835938 128.996094 45.792969 129.171875 45.703125 C 129.359375 45.613281 129.496094 45.507812 129.59375 45.390625 C 129.71875 45.234375 129.804688 45.058594 129.84375 44.855469 C 129.886719 44.660156 129.90625 44.351562 129.90625 43.933594 Z M 60.929688 45.765625 L 62.558594 45.765625 C 63.324219 45.765625 63.878906 45.511719 64.222656 45.011719 C 64.375 44.824219 64.472656 44.589844 64.511719 44.308594 C 64.550781 44.027344 64.570312 43.5 64.570312 42.730469 C 64.570312 41.980469 64.550781 41.445312 64.511719 41.121094 C 64.464844 40.796875 64.347656 40.535156 64.160156 40.332031 C 63.785156 39.832031 63.25 39.589844 62.558594 39.605469 L 60.929688 39.605469 Z M 7.199219 43.167969 L 7.199219 45.765625 L 9.296875 45.765625 C 9.800781 45.753906 10.171875 45.625 10.40625 45.367188 C 10.640625 45.113281 10.757812 44.8125 10.757812 44.464844 C 10.757812 44.109375 10.640625 43.808594 10.40625 43.554688 C 10.171875 43.304688 9.800781 43.179688 9.296875 43.167969 Z M 141.746094 43.375 C 141.730469 42.898438 141.597656 42.539062 141.347656 42.292969 C 141.101562 42.058594 140.785156 41.941406 140.398438 41.941406 C 140.011719 41.941406 139.695312 42.058594 139.449219 42.292969 C 139.207031 42.539062 139.074219 42.898438 139.046875 43.375 Z M 117.992188 43.375 C 117.976562 42.898438 117.839844 42.539062 117.589844 42.292969 C 117.34375 42.058594 117.027344 41.941406 116.640625 41.941406 C 116.253906 41.941406 115.9375 42.058594 115.691406 42.292969 C 115.449219 42.539062 115.316406 42.898438 115.292969 43.375 Z M 96.042969 43.375 C 96.027344 42.898438 95.890625 42.539062 95.640625 42.292969 C 95.394531 42.058594 95.078125 41.941406 94.691406 41.941406 C 94.304688 41.941406 93.988281 42.058594 93.742188 42.292969 C 93.5 42.539062 93.367188 42.898438 93.339844 43.375 Z M 108.097656 42.152344 L 110.15625 42.152344 C 110.667969 42.144531 111.050781 42 111.304688 41.722656 C 111.554688 41.46875 111.679688 41.152344 111.679688 40.777344 C 111.671875 40.328125 111.519531 40 111.230469 39.800781 C 111 39.621094 110.667969 39.53125 110.230469 39.53125 L 108.097656 39.53125 Z M 7.199219 39.53125 L 7.199219 42.003906 L 9.167969 42.003906 C 9.664062 42.003906 10.03125 41.878906 10.265625 41.628906 C 10.503906 41.402344 10.621094 41.113281 10.621094 40.765625 C 10.621094 40.417969 10.503906 40.121094 10.265625 39.882812 C 10.03125 39.65625 9.664062 39.542969 9.167969 39.53125 Z M 50.015625 40.207031 C 50.015625 40.386719 50.082031 40.566406 50.21875 40.753906 C 50.335938 40.949219 50.488281 41.136719 50.679688 41.316406 C 51.09375 41.152344 51.386719 40.984375 51.554688 40.804688 C 51.707031 40.625 51.785156 40.425781 51.785156 40.207031 C 51.785156 39.976562 51.703125 39.777344 51.542969 39.617188 C 51.375 39.460938 51.160156 39.386719 50.898438 39.386719 C 50.644531 39.386719 50.441406 39.460938 50.28125 39.617188 C 50.101562 39.777344 50.015625 39.976562 50.015625 40.207031 Z M 68.730469 39.605469 L 67.441406 39.605469 L 67.441406 38.367188 L 68.730469 38.367188 Z M 68.730469 39.605469 "/>
<path style=" stroke:none;fill-rule:evenodd;fill:rgb(0%,0%,0%);fill-opacity:1;" d="M 30.710938 5.855469 L 27.585938 5.855469 L 27.585938 32.421875 L 32.210938 32.421875 L 32.210938 32.414062 L 34.738281 32.414062 C 42.875 32.414062 49.527344 28.167969 49.527344 19.128906 C 49.527344 10.09375 43.007812 5.84375 34.722656 5.84375 L 31.210938 5.84375 C 31.042969 5.84375 30.875 5.847656 30.710938 5.855469 Z M 32.210938 9.957031 L 32.210938 28.207031 L 34.46875 28.207031 C 41.191406 28.207031 44.777344 25.449219 44.777344 19.082031 C 44.777344 11.351562 39.667969 9.957031 33.898438 9.957031 Z M 32.210938 9.957031 "/>
<path style=" stroke:none;fill-rule:evenodd;fill:rgb(0%,0%,0%);fill-opacity:1;" d="M 61.15625 5.835938 L 51.996094 5.835938 L 51.996094 32.417969 L 56.488281 32.417969 L 56.488281 21.851562 L 60.761719 21.859375 L 67.605469 32.429688 L 72.726562 32.410156 L 65.414062 21.117188 C 68.265625 20.050781 70.601562 17.757812 70.601562 13.703125 C 70.601562 9.363281 67.105469 5.835938 61.15625 5.835938 Z M 56.488281 9.988281 L 56.488281 17.703125 L 61.300781 17.703125 C 63.390625 17.703125 66.078125 17.101562 66.078125 13.777344 C 66.078125 11.289062 64.183594 9.988281 61.320312 9.988281 Z M 56.488281 9.988281 "/>
<path style=" stroke:none;fill-rule:evenodd;fill:rgb(73.333333%,7.843137%,0%);fill-opacity:1;" d="M 75.175781 27.511719 L 74.910156 30.722656 C 74.902344 30.902344 74.902344 30.984375 75.222656 31.160156 C 77.75 32.542969 81.683594 33.421875 86.070312 32.25 C 87.789062 31.789062 90.84375 30.421875 91.34375 26.480469 C 92.199219 19.714844 85.464844 18.070312 82.519531 16.898438 C 80.042969 15.90625 78.175781 14.652344 78.683594 12.179688 C 78.878906 11.144531 79.78125 10.324219 80.949219 9.984375 C 83.140625 9.34375 86.71875 9.570312 89.125 10.929688 C 89.5 11.121094 89.738281 11.074219 89.773438 10.667969 L 90.007812 7.65625 C 90.019531 7.445312 90.011719 7.371094 89.617188 7.207031 C 86.371094 5.863281 81.574219 5.929688 79.050781 6.890625 C 76.59375 7.832031 74.945312 9.65625 74.773438 12.449219 C 74.410156 18.304688 80.042969 19.964844 83.527344 21.167969 C 86.410156 22.167969 87.992188 23.9375 87.464844 26.507812 C 87.234375 27.714844 86.261719 28.542969 84.902344 28.9375 C 82.351562 29.683594 78.25 29.203125 75.6875 27.242188 C 75.496094 27.09375 75.199219 27.199219 75.175781 27.511719 Z M 75.175781 27.511719 "/>
<path style=" stroke:none;fill-rule:evenodd;fill:rgb(73.333333%,7.843137%,0%);fill-opacity:1;" d="M 119.648438 13.425781 C 119.648438 13.253906 119.507812 13.117188 119.332031 13.117188 L 116.324219 13.117188 C 116.148438 13.117188 116.007812 13.253906 116.007812 13.425781 L 116.007812 32.007812 C 116.007812 32.179688 116.148438 32.320312 116.324219 32.320312 L 119.332031 32.320312 C 119.507812 32.320312 119.648438 32.179688 119.648438 32.007812 Z M 119.648438 13.425781 "/>
<path style=" stroke:none;fill-rule:evenodd;fill:rgb(73.333333%,7.843137%,0%);fill-opacity:1;" d="M 120.039062 7.53125 C 120.039062 6.976562 119.855469 6.472656 119.519531 6.109375 C 119.171875 5.738281 118.566406 5.511719 118.019531 5.511719 L 117.640625 5.511719 C 116.992188 5.511719 116.335938 5.824219 115.992188 6.304688 C 115.75 6.644531 115.621094 7.207031 115.621094 7.53125 L 115.621094 7.910156 C 115.621094 8.285156 115.769531 8.867188 116.074219 9.238281 C 116.429688 9.664062 116.980469 9.929688 117.640625 9.929688 L 118.019531 9.929688 C 119.292969 9.929688 120.039062 9.027344 120.039062 7.910156 Z M 120.039062 7.53125 "/>
<path style=" stroke:none;fill-rule:evenodd;fill:rgb(73.333333%,7.843137%,0%);fill-opacity:1;" d="M 153.84375 23.671875 C 153.84375 23.671875 154.21875 18.941406 151.796875 15.816406 C 150.324219 13.914062 148.25 12.707031 145.304688 12.707031 L 144.949219 12.707031 C 142.382812 12.707031 140.078125 13.828125 138.511719 15.769531 C 137.207031 17.390625 136.414062 19.882812 136.414062 22.175781 C 136.414062 26.425781 137.496094 28.464844 139.167969 30.183594 C 140.71875 31.773438 142.960938 32.59375 144.953125 32.707031 C 148.042969 32.878906 150.042969 32.261719 151.140625 31.769531 C 151.808594 31.472656 152.171875 31.21875 152.179688 31.214844 C 152.355469 31.09375 152.351562 30.992188 152.324219 30.796875 L 152.03125 28.101562 C 152.023438 27.898438 151.933594 27.777344 151.789062 27.734375 C 151.683594 27.703125 151.546875 27.742188 151.390625 27.898438 C 150.03125 29.011719 148.433594 29.363281 146.898438 29.453125 C 145.492188 29.539062 144.355469 29.394531 143.398438 28.984375 C 141.730469 28.265625 140.359375 26.574219 140.171875 24.253906 L 153.257812 24.246094 C 153.625 24.246094 153.84375 24.277344 153.84375 23.671875 Z M 140.152344 21.054688 L 150.113281 21.054688 C 149.980469 20.058594 149.695312 18.914062 149.078125 17.988281 C 148.222656 16.710938 146.941406 15.972656 145.238281 15.972656 L 145.03125 15.972656 C 143.117188 15.972656 142.070312 16.691406 141.160156 18 C 140.609375 18.792969 140.289062 19.910156 140.152344 21.054688 Z M 140.152344 21.054688 "/>
<path style=" stroke:none;fill-rule:evenodd;fill:rgb(73.333333%,7.843137%,0%);fill-opacity:1;" d="M 94.734375 13.429688 C 94.734375 13.429688 94.738281 24.472656 94.746094 24.5 C 94.9375 29.058594 97.109375 32.765625 102.910156 32.765625 C 104.746094 32.765625 106.4375 32.160156 107.804688 31.144531 L 107.804688 32.007812 C 107.804688 32.179688 107.945312 32.320312 108.117188 32.320312 L 111.128906 32.320312 C 111.300781 32.320312 111.441406 32.179688 111.441406 32.007812 L 111.441406 13.429688 C 111.441406 13.253906 111.300781 13.113281 111.128906 13.113281 L 108.117188 13.113281 C 107.945312 13.113281 107.804688 13.253906 107.804688 13.429688 L 107.804688 27.371094 C 106.828125 28.585938 105.191406 29.476562 103.085938 29.476562 C 99.660156 29.476562 98.425781 27.523438 98.367188 24.460938 C 98.371094 24.445312 98.371094 13.429688 98.371094 13.429688 C 98.371094 13.253906 98.230469 13.113281 98.058594 13.113281 L 95.046875 13.113281 C 94.875 13.113281 94.734375 13.253906 94.734375 13.429688 Z M 94.734375 13.429688 "/>
<path style=" stroke:none;fill-rule:evenodd;fill:rgb(73.333333%,7.843137%,0%);fill-opacity:1;" d="M 125.601562 13.117188 L 122.585938 13.117188 C 122.410156 13.117188 122.269531 13.257812 122.269531 13.433594 L 122.269531 15.992188 C 122.269531 16.167969 122.410156 16.308594 122.585938 16.308594 L 125.601562 16.308594 C 125.605469 21.246094 125.609375 26.527344 125.613281 26.542969 C 125.730469 29.351562 126.566406 32.753906 132.238281 32.753906 C 133.011719 32.753906 133.742188 32.667969 134.414062 32.558594 C 134.570312 32.53125 134.84375 32.511719 134.777344 32.097656 L 134.453125 29.675781 C 134.425781 29.433594 134.335938 29.175781 133.90625 29.304688 C 133.421875 29.449219 132.425781 29.507812 131.925781 29.476562 C 130.945312 29.414062 130.375 29.246094 129.929688 28.625 C 129.164062 27.554688 129.257812 25.710938 129.234375 24.460938 C 129.238281 24.453125 129.238281 20.402344 129.238281 16.308594 L 134.5625 16.308594 C 134.734375 16.308594 134.875 16.167969 134.875 15.992188 L 134.875 13.433594 C 134.875 13.257812 134.734375 13.117188 134.5625 13.117188 L 129.238281 13.117188 C 129.238281 10.207031 129.238281 7.882812 129.238281 7.882812 C 129.238281 7.710938 129.097656 7.566406 128.925781 7.566406 L 125.914062 7.566406 C 125.742188 7.566406 125.601562 7.710938 125.601562 7.882812 C 125.601562 7.882812 125.601562 10.15625 125.601562 13.117188 Z M 125.601562 13.117188 "/>
<path style=" stroke:none;fill-rule:evenodd;fill:rgb(0%,0%,0%);fill-opacity:1;" d="M 5.835938 32.386719 L 16.496094 32.386719 C 20.757812 32.386719 25.675781 29.859375 25.675781 24.632812 C 25.675781 21.601562 24.070312 19.476562 21.886719 18.226562 C 23.4375 16.953125 24.429688 15.007812 24.429688 12.835938 C 24.429688 8.574219 19.886719 5.878906 16.0625 5.878906 L 9.011719 5.878906 C 8.847656 5.878906 8.6875 5.886719 8.53125 5.894531 L 8.53125 5.902344 L 5.835938 5.902344 Z M 10.332031 20.753906 L 10.332031 28.246094 L 16.484375 28.246094 C 20.097656 28.246094 21.078125 26.394531 21.078125 24.390625 C 21.078125 21.800781 19.125 20.753906 15.632812 20.753906 Z M 10.332031 16.484375 C 10.550781 16.519531 10.773438 16.539062 11 16.539062 L 16.179688 16.539062 C 18.214844 16.539062 19.867188 15.074219 19.867188 13.273438 C 19.867188 11.277344 18.550781 10.011719 15.417969 10.011719 L 11 10.011719 C 10.773438 10.011719 10.550781 10.03125 10.332031 10.066406 Z M 10.332031 16.484375 "/>
</g>
</svg>
